ply
format ascii 1.0
comment ellell.ply
comment Licensing: This code is distributed under the GNU LGPL license.
comment Modified: 10 June 2012
comment Author: John Burkardt
element vertex 56
property float32 x
property float32 y
property float32 z
element face 48
property list uint8 int32 vertex_index
end_header
-2 0 0
-1.7 1.7 0
0 2 0
1.7 1.7 0
2 0 0
1.7 -1.7 0
0 -2 0
-1.7 -1.7 0
-4 0 0
-3.4 3.4 0
0 4 0
3.4 3.4 0
4 0 0
3.4 -3.4 0
0 -4 0
-3.4 -3.4 0
-6 0 0
-5.1 5.1 0
0 6 0
5.1 5.1 0
6 0 0
5.1 -5.1 0
0 -6 0
-5.1 -5.1 0
-8 0 0
-6.8 6.8 0
0 8 0
6.8 6.8 0
8 0 0
6.8 -6.8 0
0 -8 0
-6.8 -6.8 0
-10 0 0
-8.5 8.5 0
0 10 0
8.5 8.5 0
10 0 0
8.5 -8.5 0
0 -10 0
-8.5 -8.5 0
-12 0 0
-10.2 10.2 0
0 12 0
10.2 10.2 0
12 0 0
10.2 -10.2 0
0 -12 0
-10.2 -10.2 0
-14 0 0
-11.6 11.6 0
0 14 0
11.6 11.6 0
14 0 0
11.6 -11.6 0
0 -14 0
-11.6 -11.6 0
4 1 2 10 9
4 2 3 11 10
4 3 4 12 11
4 4 5 13 12
4 5 6 14 13
4 6 7 15 14
4 7 8 16 15
4 8 1 9 16
4 9 10 18 17
4 10 11 19 18
4 11 12 20 19
4 12 13 21 20
4 13 14 22 21
4 14 15 23 22
4 15 16 24 23
4 16 9 17 24
4 17 18 26 25
4 18 19 27 26
4 19 20 28 27
4 20 21 29 28
4 21 22 30 29
4 22 23 31 30
4 23 24 32 31
4 24 17 25 32
4 25 26 34 33
4 26 27 35 34
4 27 28 36 35
4 28 29 37 36
4 29 30 38 37
4 30 31 39 38
4 31 32 40 39
4 32 25 33 40
4 33 34 42 41
4 34 35 43 42
4 35 36 44 43
4 36 37 45 44
4 37 38 46 45
4 38 39 47 44
4 39 40 48 45
4 40 33 41 48
4 41 42 50 49
4 42 43 51 50
4 43 44 52 51
4 44 45 53 52
4 45 46 54 53
4 46 47 55 54
4 47 48 56 55
4 48 41 49 56