ply
format ascii 1.0
comment Licensing: This code is distributed under the GNU LGPL license.
element vertex 1050
property float32 x
property float32 y
property float32 z
element face 1048
property list uint8 int32 vertex_index
end_header
-16.3552 -0.572785 -785.056 
-22.1399 18.4119 -786.539 
-7.21286 15.9096 -784.948 
-22.1767 6.38814 -785.237 
-26.2904 11.5785 -783.955 
-14.0261 14.1813 -786.576 
-35.6363 9.14588 -778.725 
-30.0212 20.9185 -785.06 
-30.0981 1.39896 -779.601 
-23.3905 -5.09498 -780.211 
-39.7215 -4.60748 -778.278 
-42.7316 1.50997 -779.99 
-8.61604 -8.27557 -782.773 
-9.92192 -18.7292 -773.985 
-41.4867 -9.51684 -773.877 
-29.7474 -9.44369 -776.285 
-48.3112 1.4754 -783.006 
-16.3928 -12.2122 -778.138 
-23.9427 -14.3984 -771.965 
-57.5648 11.9486 -776.682 
-57.8611 -8.50986 -775.779 
-35.3365 -15.1658 -773.205 
-50.035 -10.2362 -781.667 
-55.8023 1.54628 -776.726 
-61.8398 10.4921 -768.59 
-40.4796 -19.8022 -768.181 
-47.9254 -12.3569 -769.758 
-63.9497 -5.88217 -770.975 
-29.4404 -20.8258 -770.164 
-55.8594 -11.1398 -766.822 
-23.6196 -25.6654 -765.591 
-17.9891 -19.9703 -767.689 
-49.3793 -20.7829 -761.839 
-63.5576 1.52824 -770.948 
-34.5184 -25.134 -764.657 
-43.6797 -23.4952 -763.244 
-4.55979 -24.0816 -767.579 
-29.3887 -29.4822 -760.487 
-18.0455 -29.7337 -759.884 
-59.2752 18.3935 -763.8 
-11.8913 -25.0859 -762.487 
-55.8526 -17.458 -756.819 
-59.5841 -5.66848 -763.631 
-34.2878 -31.9892 -755.904 
-19.5439 -36.2033 -749.505 
-64.8329 9.4689 -760.654 
-54.5875 -25.3872 -752.951 
-12.9619 -33.0524 -753.777 
-24.4181 -33.066 -755.37 
-61.6085 -9.29202 -755.138 
-62.3589 1.40988 -762.361 
-65.18 17.1077 -757.269 
-69.4716 6.51198 -753.843 
-48.7306 -26.4025 -754.865 
-65.93 -1.28349 -754.731 
-65.2401 24.2163 -754.818 
-31.9151 -34.8894 -748.004 
-75.5426 2.91095 -747.773 
-70.8177 13.8238 -750.551 
-40.4278 -28.4544 -757.445 
-48.1175 -31.8313 -750.372 
-23.9064 -37.6207 -742.559 
-71.9872 -4.92116 -748.647 
-54.7846 -32.9293 -746.411 
-67.5701 -13.4487 -748.172 
-63.0057 -23.5738 -747.313 
-15.0583 -38.4265 -745.191 
-41.7857 -34.1548 -749.338 
-78.759 -0.285245 -741.873 
-45.2287 -39.4295 -742.46 
-76.3798 -6.89328 -740.432 
-35.9328 -41.1328 -739.751 
-77.4222 20.1362 -741.66 
-16.207 -40.2209 -739.034 
-79.4056 19.0724 -730.822 
-26.8713 -42.4375 -735.851 
-78.6925 10.8623 -742.789 
-80.8555 2.57144 -735.713 
-38.2001 -44.5141 -733.491 
-7.50984 -43.2183 -729.523 
-71.7246 -14.697 -739.262 
-77.5323 -4.73529 -731.299 
-31.206 -46.1564 -729.286 
-46.8473 -44.0656 -731.8 
-18.1002 -43.7705 -731.612 
-78.3813 12.0086 -734.221 
-69.955 -20.147 -727.787 
-37.4558 -48.1504 -721.931 
-63.8298 -30.0432 -726.891 
-66.5324 -26.0396 -735.693 
-21.2558 -47.9565 -722.311 
-76.3568 23.2053 -722.28 
-78.8543 6.97491 -729.049 
-28.3765 -49.0773 -719.801 
-51.1415 -42.3128 -720.644 
-75.8803 17.2852 -717.676 
-76.4507 12.0539 -723.466 
-35.6098 -49.6505 -714.455 
-11.9817 -46.9226 -718.164 
-57.6842 -36.8257 -735.759 
-78.1911 11.8536 -713.319 
-76.7817 0.637774 -722.813 
-72.6571 7.41562 -717.533 
-45.2965 -46.8289 -714.859 
-28.9024 -50.6408 -713.582 
-58.4763 -36.2641 -725.034 
-73.6474 -12.3945 -726.714 
-82.2162 19.277 -715.9 
-66.0841 -24.3708 -719.682 
-39.0282 -51.25 -707.598 
-85.3804 16.2726 -711.391 
-89.2456 21.6422 -710.542 
-50.0136 -46.4841 -706.423 
-68.6206 -14.0706 -716.367 
-14.1231 -55.4705 -710.713 
-71.091 3.70608 -712.554 
-79.6347 7.99725 -707.929 
-73.1062 -3.62069 -718.258 
-66.7831 -25.4459 -708.167 
-21.4952 -52.3318 -712.137 
-67.9868 -15.8163 -706.936 
-60.0989 -33.7984 -715.154 
-23.6037 -57.2922 -704.876 
-31.0098 -54.8591 -706.525 
-68.4781 -5.90643 -711.724 
-55.4133 -41.1605 -710.862 
-25.9616 -59.9499 -699.461 
-44.5922 -49.2322 -703.438 
-63.0575 -34.1786 -706.093 
-58.8867 -41.0659 -702.585 
-65.7126 -34.1831 -696.454 
-86.4437 14.0339 -703.973 
-66.0863 -7.39852 -704.167 
-32.0991 -58.4742 -698.62 
-72.9808 -3.11228 -699.796 
-22.9385 -62.0892 -693.961 
-52.7734 -46.6558 -697.993 
-73.1769 -0.838805 -706.947 
-61.4475 -40.2577 -693.169 
-68.9401 -26.1644 -697.118 
-80.2279 5.26848 -701.043 
-13.9753 -63.2224 -690.896 
-68.0377 -30.7327 -687.078 
-36.3616 -55.7151 -687.971 
-38.1093 -54.6459 -697.133 
-66.0675 -9.39829 -698.042 
-67.3631 -4.63772 -693.594 
-77.7177 2.01778 -693.843 
-63.8699 -8.03366 -687.441 
-72.2352 -0.945995 -687.429 
-68.4185 -15.3983 -694.475 
-69.3475 -25.1916 -689.534 
-55.6221 -45.5192 -689.677 
-90.7776 22.9958 -702.829 
-30.0405 -60.9102 -690.016 
-44.7898 -49.9747 -695.996 
-68.7461 -19.6658 -684.642 
-84.7604 12.1804 -695.576 
-63.4104 -37.4169 -682.328 
-86.9097 19.7247 -690.517 
-64.3487 -12.4562 -679.498 
-85.7911 13.5455 -682.948 
-82.8653 6.43094 -685.175 
-12.5482 -62.7272 -677.695 
-67.2976 -24.8961 -678.671 
-19.2435 -63.2178 -685.602 
-32.015 -55.4743 -680.342 
-46.3216 -49.9362 -685.065 
-57.7101 -43.4957 -683.169 
-64.1143 -1.52371 -682.523 
-76.2934 1.64886 -682.014 
-53.5243 -44.903 -677.387 
-59.3389 -38.4723 -673.412 
-63.0066 -19.4296 -670.942 
-65.5175 -30.7858 -676.557 
-26.4321 -62.0645 -681.113 
-70.7462 2.86629 -675.333 
-84.0664 23.9786 -679.259 
-27.0914 -53.1798 -672.753 
-80.2025 8.27995 -673.543 
-40.3361 -50.2983 -676.89 
-46.79 -45.3034 -669.961 
-74.5203 13.3617 -670.191 
-22.8969 -62.2374 -672.325 
-54.487 -3.04506 -677.244 
-35.5479 -50.4262 -672.012 
-78.1442 20.2723 -665.318 
-62.7027 -30.6039 -670.469 
-57.0024 -21.9839 -663.136 
-63.3217 0.441538 -672.462 
-55.931 -11.042 -668.472 
-17.7695 -58.5227 -667.353 
-57.1837 -30.4179 -663.799 
-37.085 -46.8586 -666.999 
-54.1674 -38.5164 -666.371 
-14.7527 -49.2916 -669.559 
-64.4676 1.95845 -665.015 
-48.0077 -37.3712 -660.722 
-28.7187 -47.2902 -664.404 
-20.3107 -51.9953 -668.57 
-56.4204 -1.74697 -664.836 
-54.5627 -15.1077 -663.369 
-69.8774 9.00524 -667.488 
-13.5724 -1.89284 -664.992 
-44.5699 -3.91935 -666.478 
-61.3262 7.26559 -658.671 
-48.4163 -14.8115 -659.253 
-49.8827 -23.3057 -657.234 
-20.6859 -47.6539 -662.527 
-38.4159 -42.5455 -661.378 
-45.0614 -41.9354 -663.641 
-42.2772 -15.9699 -655.81 
-31.3327 -3.63064 -662.481 
-68.1393 15.0264 -659.142 
-27.3481 -10.5723 -655.124 
-31.1234 0.900652 -652.719 
-20.1355 -20.4054 -646.617 
-36.1948 0.504149 -659.411 
-33.622 -37.0635 -654.935 
-16.7635 -10.4352 -652.229 
-15.0876 4.86709 -652.089 
-40.2181 -37.1409 -657.095 
-23.0931 -1.65811 -657.018 
-16.647 9.66905 -646.017 
-28.8342 -41.337 -656.876 
-48.7509 5.82616 -656.599 
-55.2919 2.64288 -659.004 
-10.4281 -44.6966 -656.538 
-41.9572 -23.394 -653.387 
-49.8551 -30.8527 -657.975 
-24.388 -15.6434 -650.427 
-56.113 12.5707 -655.028 
-35.7773 -10.8859 -657.096 
-41.5606 12.8696 -648.141 
-18.8758 -42.4863 -656.133 
-41.4157 -30.8151 -653.925 
-32.7369 5.09574 -647.437 
-39.9717 5.77221 -653.727 
-46.5492 12.9081 -652.904 
-24.5963 -34.2169 -649.974 
-61.5018 16.928 -653.141 
-31.8726 -22.3253 -650.686 
-15.1998 20.5065 -645.811 
-59.4694 23.523 -651.761 
-15.5251 -37.0255 -649.161 
-32.9369 -31.3861 -651.812 
-24.3409 6.07333 -644.539 
-19.6526 17.1562 -642.342 
-34.976 12.544 -643.095 
-22.1507 -26.8902 -646.592 
-13.5029 -18.0576 -646.229 
-44.0509 22.0296 -647.487 
-35.4524 21.1162 -641.643 
-26.7636 13.5451 -640.611 
-19.5193 24.6589 -787.084 
-10.6523 27.1242 -783.575 
-15.4667 36.2215 -781.04 
-31.271 33.9317 -783.698 
-24.0462 28.5242 -785.233 
-38.1425 23.9714 -781.014 
-24.7852 41.2115 -778.475 
-36.0377 35.7724 -780.176 
-47.4922 13.4469 -777.089 
-9.10608 41.2179 -771.123 
-41.9259 30.3883 -777.484 
-4.57876 32.6276 -774.616 
-35.8933 41.6606 -776.327 
-42.7739 38.1149 -773.722 
-48.1151 24.2364 -773.057 
-35.8783 50.051 -772.837 
-26.7636 46.632 -774.206 
-27.6248 54.1968 -768.929 
-17.9159 41.5277 -772.811 
-12.5952 56.1618 -775.735 
-56.4878 22.0245 -771.37 
-13.4581 49.0901 -773.723 
-33.6477 57.656 -767.779 
-19.3779 48.4 -769.526 
-40.7533 57.2478 -766.989 
-48.9397 32.6503 -770.001 
-46.5188 45.8848 -770.292 
-4.9721 53.0436 -779.651 
-53.4514 27.6913 -764.834 
-40.4948 64.3693 -763.389 
-31.0638 62.688 -764.744 
-48.7736 53.1096 -764.798 
-15.588 57.1134 -765.216 
-52.869 39.8673 -766.626 
-11.9699 63.3243 -767.311 
-23.2938 59.1535 -764.123 
-56.9177 46.7585 -760.098 
-29.4964 68.9595 -761.457 
-21.9598 66.0036 -760.745 
-60.5134 35.5932 -757.907 
-46.3501 71.2735 -756.94 
-37.832 71.2289 -760.39 
-62.827 46.8653 -752.246 
-21.489 71.8649 -758.103 
-56.7795 54.5435 -756.34 
-26.6252 75.2629 -757.656 
-50.5895 61.9375 -759.041 
-15.1375 64.2892 -758.985 
-55.9119 34.4445 -763.188 
-7.26637 66.1195 -759.676 
-15.7879 73.4066 -755.733 
-63.6716 40.7558 -753.677 
-42.1236 78.4392 -753.869 
-13.047 78.7359 -752.125 
-58.8255 25.6826 -759.53 
-34.0148 78.0346 -756.49 
-8.74903 70.525 -754.444 
-68.2687 38.3529 -750.129 
-22.6397 80.4037 -753.746 
-30.2808 85.4179 -750.897 
-6.9062 76.2575 -750.854 
-66.9306 31.3717 -753.103 
-57.0564 63.8543 -751.425 
-49.2564 77.685 -749.392 
-53.0916 71.2575 -751.096 
-16.8381 84.0692 -749.929 
-32.9374 89.9678 -745.368 
-72.1679 21.4572 -748.904 
-22.1126 90.1166 -746.385 
-72.4937 35.3703 -746.584 
-60.4401 65.5699 -745.405 
-15.6432 93.1843 -742.423 
-69.6603 51.2614 -743.376 
-46.0413 82.64 -746.788 
-62.297 55.1983 -748.992 
-73.2148 28.9312 -747.822 
-68.8655 44.7567 -746.836 
-39.9021 84.3265 -749.155 
-74.6719 39.4109 -741.46 
-58.2125 71.4025 -743.621 
-54.24 78.147 -742.38 
-40.7622 89.4034 -741.598 
-77.6364 28.9252 -741.227 
-28.7012 94.5217 -740.268 
-36.4457 93.2143 -738.051 
-48.5067 84.4521 -741.327 
-10.4662 94.8054 -739.199 
-77.0182 51.1542 -732.962 
-63.8674 70.4752 -735.586 
-74.1267 47.3334 -739.451 
-19.3262 98.8503 -735.356 
-71.0544 58.119 -738.427 
-64.7395 62.0669 -741.849 
-31.4529 97.9445 -731.586 
-72.2149 64.5534 -732.219 
-78.3691 39.7795 -733.305 
-9.78762 98.6158 -734.148 
-79.3581 29.5937 -733.221 
-25.0666 100.237 -730.641 
-15.6982 102.828 -725.892 
-76.391 59.1243 -728.993 
-79.9672 49.9794 -721.684 
-50.7018 86.1133 -733.627 
-66.1775 74.6151 -728.893 
-37.9127 94.8903 -732.076 
-44.4326 90.9343 -733.081 
-79.0528 38.9396 -726.308 
-56.6582 79.2123 -734.117 
-39.8088 95.7657 -724.391 
-67.5891 78.3896 -719.085 
-77.5663 30.4441 -725.222 
-32.7114 99.5343 -723.13 
-79.391 54.1717 -711.45 
-45.2082 92.0639 -726.539 
-72.5224 70.7163 -723.993 
-77.6653 60.7438 -722.114 
-13.6052 104.325 -717.388 
-78.2715 38.1537 -719.756 
-83.7452 25.7782 -716.108 
-49.6237 88.4637 -723.293 
-24.6356 102.162 -723.836 
-59.867 81.0826 -725.196 
-23.0325 102.946 -715.994 
-75.2064 31.8149 -715.942 
-32.8926 98.7768 -713.542 
-71.8574 75.6389 -712.682 
-42.1511 94.1828 -717.146 
-78.6642 42.481 -715.204 
-74.8091 70.2902 -716.135 
-78.1763 45.6538 -708.179 
-74.017 71.968 -706.306 
-67.7937 81.0205 -707.821 
-80.5058 35.7823 -711.266 
-62.9739 83.6713 -713.483 
-58.046 84.9639 -717.833 
-52.107 88.0293 -714.525 
-44.1969 90.8968 -708.425 
-36.9421 94.9233 -707.736 
-57.866 87.2877 -708.227 
-12.2206 104.203 -709.283 
-70.5968 77.2113 -703.471 
-79.1438 38.5639 -704.258 
-33.295 94.5325 -701.884 
-77.9036 55.3985 -703.833 
-20.9239 101.938 -707.791 
-76.8245 48.6152 -700.497 
-11.7169 102.289 -702.861 
-77.5046 64.1164 -711.762 
-52.4946 89.098 -701.765 
-85.8438 34.5682 -701.006 
-27.4443 98.2936 -704.867 
-88.2938 31.559 -709.379 
-64.5205 84.0289 -701.813 
-74.2551 69.8911 -700.434 
-70.4252 76.1791 -696.597 
-22.4629 96.8131 -697.428 
-16.8648 100.167 -700.349 
-74.5665 39.8635 -697.213 
-76.137 62.2784 -699.836 
-60.7206 85.7284 -695.117 
-81.0801 36.0152 -693.104 
-18.5263 94.569 -691.467 
-39.8515 91.3515 -698.674 
-35.4864 91.1956 -691.302 
-28.3239 93.0377 -694.69 
-12.3345 97.2318 -693.347 
-72.667 67.1682 -691.284 
-75.1833 53.2462 -694.199 
-46.632 90.1127 -694.364 
-68.7855 71.2417 -684.631 
-77.5272 40.3963 -684.049 
-55.1567 86.6164 -687.248 
-88.8819 29.1589 -698.088 
-72.9694 44.7299 -690.488 
-66.4252 78.9288 -688.988 
-85.8181 29.5305 -691.315 
-83.7789 32.0294 -682.59 
-73.2399 58.764 -688.13 
-70.1215 63.4496 -681.555 
-48.4683 86.7786 -680.255 
-42.806 89.7334 -686.63 
-23.1023 89.8824 -685.783 
-7.27553 92.5987 -685.782 
-37.3303 88.7388 -680.367 
-68.4321 45.6494 -679.864 
-60.701 80.7929 -680.426 
-32.3843 90.3337 -685.588 
-71.6018 51.3628 -684.436 
-53.7314 81.8641 -673.213 
-77.0603 39.1965 -674.613 
-81.2282 33.9603 -676.101 
-69.8924 56.6427 -680.07 
-66.5756 55.1397 -673.959 
-20.0313 86.8544 -678.55 
-69.1304 42.8218 -672.873 
-30.9615 87.0887 -676.516 
-63.7643 73.623 -676.343 
-6.43707 87.5645 -674.477 
-45.6788 80.0517 -669.309 
-41.566 85.6247 -674.566 
-33.9045 83.151 -668.45 
-66.4419 65.7035 -675.079 
-62.1738 60.1488 -667.09 
-84.3021 16.3986 -675.086 
-62.7589 46.9443 -669.104 
-62.9606 66.1901 -669.53 
-14.2531 83.9123 -672.87 
-75.0433 34.756 -666.898 
-25.1066 85.1453 -674.933 
-79.7695 28.5583 -671.4 
-39.9773 80.8894 -665.837 
-57.8296 72.9769 -667.661 
-40.6921 77.5392 -659.393 
-59.2894 52.1388 -663.502 
-55.2549 64.1763 -662.717 
-24.5896 83.6258 -668.076 
-69.7199 39.7202 -666.448 
-48.5661 75.0255 -663.019 
-8.64845 82.1021 -667.278 
-16.3905 79.6632 -661.293 
-24.5053 80.3089 -659.641 
-55.0452 44.9054 -659.311 
-8.1995 77.5236 -662.319 
-33.284 74.168 -650.901 
-53.8797 57.4776 -658.927 
-62.742 39.6922 -661.901 
-61.9192 29.8605 -655.539 
-69.6853 29.3993 -660.233 
0.0855127 82.2799 -659.353 
-48.7897 69.0792 -657.361 
-41.3287 72.3177 -652.795 
-47.8364 62.3378 -652.746 
-56.7308 33.998 -655.118 
-32.8216 79.292 -658.863 
-16.4333 74.6334 -653.461 
-68.7682 22.4769 -655.834 
-46.8572 56.3378 -650.344 
-50.7557 51.4811 -654.513 
-8.8364 74.0697 -655.77 
-45.7891 46.0295 -649.881 
-51.1785 28.2777 -651.55 
-50.1446 39.1103 -654.901 
-51.3587 17.3907 -650.976 
-45.0312 33.7442 -650.292 
-40.1464 39.8307 -646.511 
-24.8092 75.2161 -651.352 
-15.4091 66.588 -650.12 
-40.9938 64.7147 -647.725 
-22.2509 33.5876 -645.192 
-20.9294 41.681 -643.902 
-24.5658 68.1653 -645.853 
-33.1674 66.5122 -645.012 
-21.4331 53.0888 -644.671 
-13.9522 58.7435 -647.219 
-40.3237 54.1739 -645.209 
-41.1456 28.9183 -646.093 
-23.8898 24.1626 -641.419 
-31.0673 57.8501 -642.655 
-22.6519 59.9774 -644.407 
-26.974 49.7832 -642.703 
-29.1667 39.3848 -643.864 
-33.8705 45.0384 -643.285 
-31.9329 31.1275 -643.023 
-28.8958 20.5097 -640.213 
-9.27902 4.50173 -786.485 
-2.29622 -1.80788 -784.403 
-3.0724 10.2366 -784.87 
-4.39447 21.3139 -781.358 
7.60808 6.75026 -780.634 
0.978615 4.78642 -783.911 
2.03368 15.6578 -781.021 
5.56486 -4.28221 -780.903 
14.2968 3.70264 -777.737 
13.0877 14.7493 -777.152 
0.508873 -14.508 -778.361 
6.17016 20.0161 -775.425 
19.6489 8.97809 -777.393 
14.8415 -4.60348 -776.349 
25.6181 14.2599 -776.764 
25.1595 1.30253 -776.549 
32.2988 7.17381 -776.622 
18.7974 19.1088 -774.47 
6.9152 31.4735 -772.671 
0.918668 26.2421 -775.562 
21.1641 -10.5316 -771.824 
30.4335 -5.66935 -773.925 
3.89177 -21.7559 -770.886 
44.072 8.36949 -772.89 
37.3901 13.6048 -775.105 
40.5501 18.2575 -772.445 
31.1028 19.0121 -774.31 
38.6954 0.573259 -774.155 
9.73299 -12.8209 -776.09 
53.0562 12.908 -766.429 
46.3823 16.6707 -770.457 
24.5762 23.2638 -771.118 
12.6303 -17.1145 -771.943 
25.0516 -16.9074 -768.095 
50.3068 4.69524 -768.484 
45.9544 22.991 -766.498 
36.6401 -12.8935 -768.501 
53.2765 20.5741 -762.524 
8.45142 -25.4124 -763.449 
44.9128 -4.05376 -769.209 
58.0696 8.59848 -759.968 
26.5379 -24.0128 -764.172 
35.6071 -22.4437 -764.152 
16.2765 -20.8555 -766.168 
55.4808 1.16044 -761.945 
46.2052 -15.7108 -762.566 
19.0307 -25.2525 -762.776 
50.0102 -7.06849 -762.452 
58.6812 16.867 -757.098 
42.9162 -21.8548 -761.919 
-6.7144 -28.2805 -755.309 
53.197 -18.35 -756.845 
34.8355 -29.1234 -757.792 
25.6617 -29.5175 -757.607 
15.3223 -28.1562 -756.141 
54.1641 -9.9078 -757.306 
-1.78791 -33.2878 -749.462 
46.0853 -27.2452 -755.944 
24.3262 -34.4323 -750.344 
54.6772 -28.3957 -749.653 
58.3446 -4.41174 -752.898 
15.9196 -34.6231 -748.706 
56.8621 -23.4964 -753.019 
0.842315 -27.5696 -759.716 
61.9532 5.53064 -751.63 
57.2086 23.0311 -751.286 
60.9716 -10.6757 -743.533 
5.65166 -30.6312 -752.186 
58.1708 -14.8141 -748.334 
62.4432 -3.67298 -744.049 
42.8937 -34.183 -749.166 
62.4313 13.4284 -749.718 
32.9966 -34.202 -750.529 
22.8619 -38.5132 -743.166 
-9.11931 -36.7478 -747.307 
40.2048 -38.9248 -741.985 
65.165 -4.53394 -735.988 
-7.78122 -40.8553 -739.847 
31.2108 -38.3309 -742.885 
0.974236 -37.5484 -742.242 
64.5832 4.40057 -742.705 
61.1771 -21.1805 -749.174 
60.9903 18.9373 -747.017 
16.2245 -38.4617 -743.062 
67.6021 3.27986 -734.286 
20.4836 -42.8423 -736.008 
8.78664 -32.8073 -743.578 
61.3708 -12.284 -737.511 
11.2739 -40.6529 -737.065 
37.5071 -43.3079 -734.252 
55.8094 -18.6166 -740.308 
29.4778 -42.3345 -735.804 
51.4019 -34.133 -744.123 
57.3174 -31.4915 -735.618 
64.5712 12.3227 -740.783 
61.1287 19.3107 -740.387 
27.1569 -45.8628 -729.985 
62.6038 -13.9958 -730.469 
58.6677 -21.8285 -733.21 
9.43946 -45.6712 -728.196 
2.25477 -39.7937 -734.028 
67.0365 -6.21072 -728.455 
47.2118 -38.9034 -739.405 
55.9946 -31.893 -727.505 
32.6137 -47.3535 -727.018 
60.7394 -25.4829 -743.573 
-0.411797 -42.7956 -721.985 
26.562 -51.4133 -720.088 
70.7225 1.73847 -725.815 
19.0738 -48.2786 -726.71 
48.3896 -42.8271 -730.94 
66.9619 11.3726 -732.421 
3.786 -40.5385 -727.467 
65.82 -17.8846 -723.547 
39.8808 -49.3717 -721.557 
61.4181 -25.9365 -725.528 
65.0723 16.2631 -722.57 
7.57918 -45.9165 -719.252 
67.6195 -8.91391 -721.192 
33.5606 -52.5371 -716.414 
14.1819 -51.9432 -717.376 
34.4329 -54.9272 -709.122 
69.8211 10.3612 -723.54 
45.041 -47.4592 -712.968 
65.7114 -21.8429 -714.258 
61.0844 -30.7832 -717.491 
71.0191 0.308661 -715.866 
9.88347 -54.0741 -709.586 
22.4964 -54.8487 -713.315 
-3.85008 -50.2588 -717.516 
61.9655 17.6786 -715.374 
-5.95352 -55.6831 -709.021 
54.4597 19.1267 -711.231 
3.75663 -49.7238 -713.183 
51.851 -38.4338 -720.49 
69.6137 9.94048 -714.508 
18.2999 -58.1429 -705.066 
0.398697 -53.3844 -708.418 
54.9588 14.6688 -706.296 
28.6655 -57.3945 -703.213 
44.2901 -48.5435 -704.721 
51.7316 -37.8244 -710.485 
66.2498 -19.0544 -707.91 
41.7969 -54.8615 -700.149 
66.5804 -11.5082 -714.654 
68.9206 -5.08694 -712.552 
42.7371 15.7741 -705.998 
35.0445 24.3524 -704.235 
51.8832 -37.2574 -702.228 
57.7527 -32.7294 -709.676 
62.0391 14.377 -708.494 
66.6261 -12.842 -707.152 
3.94548 -53.5624 -702.84 
45.2218 -40.7104 -709.875 
-15.9008 -60.8644 -700.291 
68.6159 2.03168 -704.867 
66.8907 -5.41237 -706.251 
66.0076 9.34113 -706.547 
20.1534 -60.509 -698.368 
42.2965 -41.0002 -702.904 
58.5631 0.795659 -701.653 
-4.73055 -58.7108 -698.575 
26.1027 -60.1882 -696.222 
34.3366 -56.8733 -700.571 
62.4859 -27.558 -705.559 
32.7314 -57.5152 -693.677 
42.4545 -35.3955 -696.739 
46.9098 7.6976 -700.805 
50.1868 -7.7394 -697.418 
57.1625 8.3724 -702.315 
61.6347 -13.9553 -700.952 
58.7954 -6.56152 -703.053 
41.9336 -47.5117 -693.76 
48.0575 -1.08836 -701.546 
56.9196 -34.0098 -702.974 
41.5527 18.0657 -696.99 
39.167 -53.8554 -684.774 
37.6949 -44.4576 -682.018 
38.9535 -56.4063 -692.568 
39.6123 24.9099 -695.711 
54.0712 -15.0594 -695.199 
44.7366 12.6959 -697.094 
9.23141 -58.7745 -699.077 
3.07546 -58.6331 -692.769 
63.9173 -21.5041 -701.52 
40.2087 -1.47475 -700.216 
57.8214 -29.777 -698.524 
42.8042 3.79243 -695.23 
36.2606 -7.65333 -694.913 
10.5946 -62.2075 -688.759 
56.0748 -22.8865 -696.585 
44.6438 -17.364 -691.941 
15.6847 -61.6194 -693.888 
34.3233 -54.6678 -677.336 
40.0198 -40.5811 -690.406 
-8.18522 -61.9055 -687.901 
33.1163 -16.1447 -693.008 
41.1671 -29.0284 -691.755 
50.4535 -32.4484 -696.38 
29.9153 -57.6895 -686.274 
48.8203 -25.5296 -692.639 
36.7397 -33.3947 -688.115 
45.1114 17.806 -689.827 
30.9625 -25.75 -686.877 
36.6662 -21.5701 -691.332 
46.3153 10.6348 -691.309 
43.9631 0.431745 -688.698 
32.1283 -12.0754 -686.716 
49.3564 15.6192 -683.121 
6.17959 -62.0836 -684.092 
35.988 -36.9581 -680.182 
17.7702 -62.2393 -683.269 
22.9736 -61.5834 -689.134 
26.0362 -16.8187 -690.837 
38.7093 -6.52274 -683.058 
42.8582 -1.05012 -680.099 
47.0629 8.18771 -684.978 
33.4911 -30.9704 -680.136 
50.3357 21.6692 -682.881 
49.0551 5.85388 -676.984 
52.7285 14.0336 -675.722 
-0.580623 -59.4898 -685.319 
50.0533 4.33422 -668.788 
53.1513 22.7976 -676.651 
25.3994 -58.119 -678.088 
33.5995 -48.4076 -671.905 
30.698 -30.6101 -674.035 
9.91881 -62.3019 -678.704 
27.0975 -23.8025 -679.233 
14.6546 -60.209 -673.133 
-0.396423 -60.9362 -676.084 
24.0222 -17.2931 -682.763 
-11.3187 -55.4862 -671.289 
41.2304 -3.33132 -669.948 
26.3447 -10.8859 -671.624 
48.626 4.40038 -659.887 
21.0076 -17.0792 -676.091 
55.1174 23.2283 -668.55 
23.2636 -23.593 -672.457 
-4.56185 -57.9608 -670.78 
25.3283 -30.4464 -667.357 
32.095 -38.6147 -671.835 
54.1893 13.3878 -667.926 
33.085 -10.7319 -678.693 
25.4885 -54.4204 -670.322 
18.0299 -23.2307 -667.879 
6.73633 -59.3271 -668.923 
28.4112 -45.9239 -665.266 
53.4136 21.1769 -654.063 
18.4777 -56.7805 -669.194 
53.3305 12.8389 -659.358 
17.3174 -27.4339 -663.399 
13.6562 -54.2202 -664.077 
18.7421 -12.2778 -666.38 
43.279 -1.52483 -661.864 
-3.39847 -2.98452 -664.69 
14.5238 -18.1624 -671.288 
-0.367691 -56.2063 -665.441 
7.2373 -20.3152 -665.073 
-1.26942 -12.6349 -657.476 
1.87056 -12.8582 -665.433 
3.44864 -19.699 -657.312 
25.5031 -7.54252 -659.558 
24.4372 -39.1153 -663.762 
33.2283 -7.84076 -664.336 
-12.8095 -47.4481 -663.426 
11.8634 -10.9592 -664.862 
-6.99594 -52.0266 -663.689 
15.2012 -33.7436 -659.601 
-9.87262 -9.9828 -655.719 
51.3807 27.8943 -650.892 
23.621 -50.4114 -663.696 
38.5212 -3.08352 -656.72 
43.9262 4.22657 -651.769 
-9.33987 9.80657 -658.245 
31.1391 -2.96806 -651.652 
5.77162 -7.06925 -662.689 
18.1241 -5.22118 -657.308 
14.4761 -48.6388 -660.446 
-2.78038 -48.1587 -658.442 
4.54298 -52.3045 -660.987 
9.07036 -46.5104 -658.085 
6.95701 -29.8415 -658.146 
11.5136 -1.29827 -657.321 
19.5614 -44.7546 -658.417 
-8.11668 -15.582 -648.988 
2.64509 5.88318 -657.18 
-4.25342 16.8432 -653.525 
13.6264 -40.306 -655.497 
-12.1812 16.0341 -649.321 
2.77345 -25.1095 -651.639 
-7.30455 24.7934 -653.235 
1.26156 -42.141 -656.223 
5.34249 -36.461 -653.833 
-3.08902 -20.1077 -648.692 
-6.62517 -38.5443 -652.065 
23.0012 -0.834068 -649.315 
16.0387 1.57981 -649.528 
1.5389 15.1221 -647.582 
-3.59687 32.1 -649.546 
15.2487 7.94244 -644.657 
36.4475 4.40986 -645.167 
8.11982 12.6245 -642.319 
-1.05192 -32.8251 -647.547 
3.367 22.3127 -647.894 
49.0206 13.7972 -649.94 
26.8199 5.7316 -642.297 
30.2055 15.726 -637.942 
-10.6648 -27.7461 -645.431 
19.2642 16.0247 -639.558 
47.9796 20.2821 -646.413 
10.9237 19.0835 -642.552 
39.7839 13.0749 -642.115 
20.1709 24.2023 -637.72 
26.261 22.7406 -636.638 
43.0704 21.8477 -641.932 
36.1863 24.8464 -638.149 
0.0983675 35.9985 -771.09 
8.28059 57.9551 -775.147 
-0.639663 62.1325 -776.395 
-8.56408 64.1553 -772.895 
13.1423 44.6364 -773.197 
16.2721 34.0659 -770.817 
4.11672 50.1962 -778.009 
11.8495 63.853 -769.994 
7.69918 40.2603 -773.825 
17.1925 53.4998 -773.46 
1.08968 42.5892 -775.02 
29.2153 26.2876 -767.765 
21.1657 65.8552 -764.716 
20.1058 43.7618 -769.089 
3.3245 68.5733 -766.828 
11.6993 23.0868 -769.963 
15.562 69.3168 -764.728 
17.7852 26.0946 -765.697 
36.8557 24.0228 -769.488 
22.6449 60.8739 -769.868 
24.9383 48.7765 -769.47 
24.9134 29.6621 -760.787 
-4.0883 67.396 -766.621 
43.939 27.6838 -761.98 
22.5864 37.4852 -765.654 
28.8582 43.1322 -760.05 
28.3483 54.0938 -768.313 
25.3952 34.6114 -753.037 
36.432 29.8689 -761.787 
9.07117 72.6095 -763.046 
29.2214 62.6607 -764.142 
26.6234 67.9717 -758.393 
10.5719 76.3638 -756.921 
49.1832 28.0624 -756.04 
32.6695 55.5637 -761.52 
35.334 51.3564 -756.087 
18.95 73.812 -757.918 
27.4582 73.0074 -749.114 
2.11296 72.254 -751.388 
38.1049 54.897 -750.905 
37.5133 42.7758 -753.423 
35.719 63.237 -754.921 
35.0572 32.2581 -752.362 
39.0936 32.2377 -744.556 
20.6357 77.6362 -749.966 
48.7348 30.2248 -746.75 
-8.35622 85.5707 -746.138 
35.818 67.5116 -746.283 
41.2863 58.8283 -745.474 
13.5232 78.4339 -750.337 
41.1177 48.8338 -748.822 
47.6466 29.8652 -740.044 
1.48805 81.672 -743.935 
41.2446 30.9032 -736.624 
27.397 76.1415 -739.911 
19.5439 78.2224 -739.708 
-4.91747 91.2314 -740.309 
41.4362 49.129 -741.136 
11.214 76.8006 -744.127 
40.8705 39.7617 -742.716 
-1.69646 95.3527 -734.602 
0.551915 87.664 -740.409 
10.2611 82.8792 -737.943 
31.8626 71.8672 -739.559 
18.776 79.248 -733.315 
38.1914 65.8506 -738.312 
56.0147 25.4677 -743.687 
40.4272 37.7871 -733.435 
34.251 69.3809 -732.843 
43.2691 45.2801 -731.508 
42.9904 54.4129 -736.531 
25.1941 74.3656 -729.585 
19.2316 83.5209 -729.191 
4.84102 90.1446 -735.874 
1.27433 98.4397 -728.359 
53.6793 26.3605 -736.038 
22.8293 81.6284 -724.468 
42.2892 60.9291 -737.917 
18.5254 89.5065 -721.96 
44.6345 53.0172 -730.545 
33.6867 68.7397 -725.057 
-7.14453 101.736 -727.216 
14.6332 88.2142 -729.326 
47.1418 33.6104 -725.225 
61.2119 19.5644 -730.383 
50.5785 43.8427 -725.5 
8.57399 93.5265 -729.289 
40.1751 61.0461 -728.877 
53.5528 23.3505 -721.869 
47.7273 27.5328 -730.584 
30.7293 73.7527 -721.759 
-4.16127 103.633 -718.545 
38.7877 66.0574 -721.264 
4.1088 99.2072 -719.479 
12.1967 95.2552 -720.768 
17.34 96.887 -712.204 
43.4498 26.3682 -720.818 
46.2019 59.1183 -723.659 
28.0816 81.9078 -718.479 
23.8067 90.0349 -714.799 
50.1842 53.3542 -724.668 
48.2984 37.5215 -705.87 
47.384 20.8198 -712.32 
52.2865 54.0022 -716.381 
50.2523 34.542 -715.075 
35.8289 72.7245 -713.394 
31.723 80.9359 -712.287 
8.53874 101.069 -710.68 
43.5348 27.1265 -712.03 
53.4702 43.5313 -716.513 
45.7655 61.9277 -717.861 
49.175 55.105 -707.934 
42.9902 64.16 -710.006 
44.2197 32.1328 -705.425 
50.7391 45.2412 -706.185 
-1.87656 102.164 -708.267 
43.1292 55.1278 -700.791 
45.064 47.6742 -700.544 
39.1644 64.6361 -702.234 
29.3602 86.6136 -705.346 
3.95262 101.951 -701.158 
40.1114 42.6764 -697.612 
35.4454 75.2454 -702.695 
12.4936 100.41 -699.748 
34.0089 73.6007 -691.878 
21.6218 95.921 -703.418 
40.4146 33.549 -693.382 
39.4725 32.9571 -700.783 
37.5732 55.2398 -693.023 
-6.37184 99.6129 -699.675 
38.312 40.2514 -688.842 
38.2975 64.7299 -695.592 
46.104 33.7766 -688.288 
-0.146291 99.8197 -694.77 
24.4093 92.7471 -696.644 
29.4484 85.299 -694.631 
7.428 98.6926 -690.779 
2.74135 95.8483 -685.773 
25.0576 86.4601 -687.256 
36.2356 48.3773 -684.634 
47.1146 26.3063 -687.411 
20.2856 94.5671 -691.743 
14.1586 94.7661 -686.306 
33.0805 56.3458 -680.014 
45.7746 36.8638 -681.045 
33.4139 63.5226 -686.641 
18.3474 87.7747 -681.761 
29.3255 67.9733 -681.978 
50.4006 30.4853 -679.443 
20.2637 80.4903 -679.16 
6.71492 92.5786 -681.307 
41.6334 45.9467 -677.328 
53.2874 32.3878 -669.528 
-0.947083 89.3292 -678.005 
49.5335 39.4626 -670.207 
11.1665 86.6833 -676.691 
45.2691 44.7621 -670.99 
28.7986 62.9282 -676.125 
16.7156 80.27 -672.301 
27.2229 76.5602 -682.081 
3.83524 83.6569 -672.746 
23.7816 70.142 -672.284 
17.1988 77.0362 -665.356 
-3.04042 85.1364 -668.552 
26.407 63.2669 -666.775 
37.5332 52.381 -672.645 
8.26368 83.0498 -665.759 
53.7995 32.1254 -660.493 
55.3262 22.9794 -660.405 
20.5397 71.1754 -663.8 
32.6475 57.4374 -666.768 
12.9508 79.0696 -659.279 
43.3232 48.2763 -665.706 
24.0228 63.3453 -661.044 
31.1702 56.8358 -657.379 
17.0357 71.5953 -655.98 
19.6507 63.2989 -654.814 
48.6583 41.347 -659.428 
7.0245 77.3356 -652.845 
39.525 51.6639 -662.004 
-3.11041 77.2041 -654.129 
39.6569 49.2254 -654.322 
27.0196 55.5393 -650.776 
-16.8644 28.2409 -646.716 
47.8432 37.6659 -651.369 
21.0174 52.513 -646.197 
0.152662 71.7321 -650.791 
3.89378 63.9774 -648.956 
-11.4399 37.219 -647.547 
-0.424913 37.6702 -648.226 
14.9775 59.6745 -650.167 
-5.45565 45.3811 -648.75 
-7.3469 67.5947 -650.723 
4.52678 28.7706 -645.545 
11.0013 69.0763 -650.278 
3.9912 51.6794 -648.083 
-3.64233 57.3569 -649.146 
9.21225 55.5047 -648.327 
-14.8672 50.1087 -645.771 
5.77677 44.814 -646.431 
6.26837 36.6975 -644.959 
33.3765 46.5328 -645.376 
26.1068 47.0982 -643.156 
42.7829 43.1423 -649.873 
12.6188 26.5184 -640.845 
15.0149 45.8295 -643.426 
13.9554 35.1748 -640.901 
40.2932 39.784 -644.762 
45.2773 29.5288 -643.971 
23.8325 40.9198 -639.981 
21.3362 32.6009 -637.826 
28.9855 29.133 -636.906 
45.3124 35.2514 -646.161 
31.5346 37.1394 -639.342 
38.3478 33.0023 -640.444 
4 518 0 3 5 
4 255 5 1 254 
4 12 0 518 519 
4 8 3 0 9 
4 1 5 3 4 
4 518 5 2 520 
4 4 6 7 1 
4 521 2 5 255 
4 9 0 12 17 
4 11 16 262 6 
4 3 8 6 4 
4 8 9 15 10 
4 10 11 6 8 
4 15 9 17 18 
4 22 10 14 26 
4 13 17 12 528 
4 20 23 16 22 
4 262 16 23 19 
4 11 10 22 16 
4 14 10 15 21 
4 17 13 31 18 
4 21 15 18 28 
4 31 30 28 18 
4 26 14 21 25 
4 26 29 20 22 
4 23 20 27 33 
4 274 19 24 39 
4 28 34 25 21 
4 34 59 35 25 
4 31 13 36 40 
4 26 25 35 32 
4 29 26 32 41 
4 28 30 37 34 
4 33 24 19 23 
4 20 29 42 27 
4 38 30 31 40 
4 24 33 50 45 
4 30 38 48 37 
4 27 42 50 33 
4 34 37 43 59 
4 53 32 35 59 
4 47 38 40 568 
4 48 38 47 44 
4 274 39 308 282 
4 41 32 53 46 
4 52 45 50 54 
4 24 45 51 39 
4 37 48 56 43 
4 42 29 41 49 
4 41 46 63 65 
4 45 52 58 51 
4 41 65 64 49 
4 50 42 49 54 
4 59 43 56 67 
4 63 46 53 60 
4 54 49 64 62 
4 52 54 62 57 
4 51 58 321 55 
4 56 48 44 61 
4 80 64 65 89 
4 99 89 65 63 
4 58 76 72 321 
4 58 52 57 76 
4 57 62 70 68 
4 57 68 77 76 
4 60 53 59 67 
4 47 592 66 44 
4 67 56 71 69 
4 595 73 66 592 
4 61 44 66 73 
4 60 67 69 63 
4 71 56 61 75 
4 80 70 62 64 
4 83 69 71 78 
4 61 73 84 75 
4 72 336 329 321 
4 68 70 81 77 
4 336 72 74 351 
4 74 72 76 85 
4 79 84 73 595 
4 76 77 92 85 
4 75 84 90 82 
4 99 63 69 83 
4 78 71 75 82 
4 94 83 87 103 
4 87 83 78 82 
4 70 80 106 81 
4 86 106 80 89 
4 82 90 93 87 
4 89 99 105 88 
4 90 84 79 98 
4 77 81 101 92 
4 92 96 74 85 
4 95 91 74 96 
4 97 87 93 104 
4 83 94 105 99 
4 92 101 102 96 
4 372 91 95 107 
4 96 102 100 95 
4 95 100 110 107 
4 103 87 97 109 
4 101 81 106 117 
4 104 93 90 119 
4 97 104 123 109 
4 108 88 105 121 
4 108 86 89 88 
4 86 108 113 106 
4 115 102 101 117 
4 111 372 107 110 
4 372 111 153 405 
4 100 102 115 116 
4 114 98 647 649 
4 90 98 114 119 
4 123 104 119 122 
4 110 100 116 131 
4 103 112 125 94 
4 137 115 117 124 
4 127 112 103 109 
4 117 106 113 124 
4 125 121 105 94 
4 108 118 120 113 
4 122 119 114 672 
4 108 121 128 118 
4 136 112 127 155 
4 113 120 132 124 
4 123 122 126 133 
4 128 121 125 129 
4 122 672 135 126 
4 125 112 136 129 
4 111 110 131 153 
4 155 127 109 144 
4 123 133 144 109 
4 134 137 124 132 
4 154 133 126 135 
4 128 129 138 130 
4 120 150 145 132 
4 115 137 140 116 
4 138 129 136 152 
4 116 140 157 131 
4 131 157 159 153 
4 130 139 118 128 
4 120 118 139 150 
4 133 154 143 144 
4 137 134 147 140 
4 175 154 135 165 
4 132 145 146 134 
4 139 130 142 151 
4 139 151 156 150 
4 130 138 158 142 
4 155 144 143 167 
4 147 134 146 149 
4 157 140 147 162 
4 146 145 150 148 
4 152 136 155 167 
4 138 152 168 158 
4 149 170 162 147 
4 160 148 150 156 
4 159 157 162 161 
4 169 149 146 148 
4 143 154 175 166 
4 141 165 135 672 
4 160 184 169 148 
4 156 151 142 164 
4 173 160 156 164 
4 179 457 161 162 
4 160 173 190 184 
4 142 158 174 164 
4 161 457 177 159 
4 141 713 163 165 
4 179 162 170 176 
4 158 168 171 172 
4 170 149 169 176 
4 180 167 143 166 
4 174 158 172 187 
4 167 180 181 171 
4 178 166 175 183 
4 152 167 171 168 
4 175 165 163 183 
4 180 166 178 185 
4 174 187 173 164 
4 179 176 202 182 
4 192 187 172 194 
4 173 187 192 188 
4 184 189 176 169 
4 176 189 196 202 
4 171 181 194 172 
4 186 457 179 182 
4 184 190 204 200 
4 178 183 191 199 
4 173 188 201 190 
4 193 181 180 185 
4 195 199 191 750 
4 185 178 198 193 
4 202 213 186 182 
4 186 213 489 481 
4 194 181 210 197 
4 206 204 190 201 
4 224 209 193 198 
4 181 193 209 210 
4 198 178 199 208 
4 196 205 213 202 
4 189 184 200 196 
4 192 194 197 229 
4 192 229 207 188 
4 783 208 199 195 
4 226 200 204 225 
4 204 232 212 217 
4 198 208 234 224 
4 201 188 207 206 
4 206 211 232 204 
4 222 214 230 219 
4 214 222 212 232 
4 226 205 196 200 
4 222 219 787 203 
4 215 217 212 222 
4 216 250 219 230 
4 218 221 209 224 
4 211 206 207 228 
4 787 219 250 803 
4 204 217 237 225 
4 210 209 221 197 
4 203 792 220 222 
4 223 220 792 807 
4 215 236 237 217 
4 222 246 236 215 
4 213 205 231 240 
4 218 224 239 245 
4 221 235 229 197 
4 211 228 241 232 
4 231 205 226 225 
4 245 235 221 218 
4 230 214 232 241 
4 228 207 229 235 
4 222 220 223 246 
4 228 235 245 241 
4 225 237 233 238 
4 231 225 238 496 
4 224 234 244 239 
4 234 208 783 227 
4 247 223 807 242 
4 236 248 233 237 
4 240 231 496 243 
4 213 240 243 489 
4 244 234 227 813 
4 216 230 241 249 
4 245 239 249 241 
4 233 251 496 238 
4 250 216 249 826 
4 812 803 250 826 
4 239 244 826 249 
4 248 236 246 253 
4 251 233 248 252 
4 246 223 247 253 
4 252 516 509 251 
4 255 254 258 256 
4 265 255 256 263 
4 257 260 256 258 
4 259 257 258 7 
4 6 262 259 7 
4 261 257 259 264 
4 256 260 272 263 
4 260 257 261 266 
4 258 254 1 7 
4 265 537 521 255 
4 264 259 262 268 
4 537 265 835 536 
4 261 264 267 266 
4 267 264 268 279 
4 835 265 263 845 
4 260 266 269 270 
4 274 268 262 19 
4 266 267 280 269 
4 278 269 280 285 
4 269 278 276 271 
4 270 269 271 277 
4 272 260 270 277 
4 268 274 282 279 
4 280 267 279 287 
4 277 275 263 272 
4 275 277 286 273 
4 281 263 275 273 
4 279 282 302 287 
4 277 271 289 286 
4 300 283 278 285 
4 838 273 286 288 
4 276 278 283 284 
4 271 276 284 289 
4 291 284 283 295 
4 285 280 287 290 
4 290 298 300 285 
4 290 287 302 293 
4 284 291 292 289 
4 298 290 296 328 
4 283 300 294 295 
4 291 299 297 292 
4 291 295 309 299 
4 290 293 305 296 
4 289 292 301 286 
4 288 286 301 303 
4 301 292 297 304 
4 838 288 303 857 
4 297 299 312 304 
4 303 873 849 857 
4 295 294 306 309 
4 310 303 301 304 
4 302 282 308 293 
4 873 303 310 314 
4 39 51 55 308 
4 300 298 328 316 
4 307 304 312 319 
4 312 299 309 313 
4 310 304 307 314 
4 311 305 293 315 
4 330 296 305 311 
4 313 309 306 331 
4 315 293 308 55 
4 319 312 313 322 
4 328 296 330 326 
4 294 300 316 318 
4 331 306 317 327 
4 307 319 881 314 
4 315 55 321 329 
4 317 306 294 318 
4 318 316 324 333 
4 317 318 333 334 
4 315 329 323 311 
4 313 320 337 322 
4 311 323 332 330 
4 327 317 334 339 
4 320 313 331 335 
4 342 333 324 346 
4 881 319 322 325 
4 337 320 335 338 
4 324 316 328 346 
4 332 323 329 336 
4 332 343 326 330 
4 325 322 337 344 
4 333 342 361 334 
4 335 331 327 339 
4 328 326 345 346 
4 325 344 350 340 
4 325 340 891 881 
4 343 341 345 326 
4 349 332 336 351 
4 334 361 356 339 
4 338 335 359 358 
4 337 338 358 347 
4 348 345 341 354 
4 352 344 337 347 
4 359 335 339 356 
4 348 342 346 345 
4 343 332 349 341 
4 357 342 348 368 
4 341 355 369 354 
4 361 342 357 375 
4 344 352 374 353 
4 355 341 349 360 
4 350 344 353 916 
4 351 364 360 349 
4 74 91 364 351 
4 365 347 358 362 
4 353 374 376 370 
4 347 365 374 352 
4 348 354 369 368 
4 366 355 381 383 
4 359 356 373 367 
4 362 358 359 367 
4 355 360 371 381 
4 368 363 375 357 
4 360 364 377 371 
4 372 377 364 91 
4 379 363 368 382 
4 362 367 373 380 
4 365 362 380 378 
4 355 366 401 369 
4 375 373 356 361 
4 377 372 405 386 
4 381 371 377 386 
4 369 401 382 368 
4 389 373 375 388 
4 370 376 398 393 
4 380 373 389 390 
4 370 393 950 926 
4 375 363 387 388 
4 374 365 378 376 
4 392 389 388 387 
4 379 385 387 363 
4 384 379 382 401 
4 379 384 394 385 
4 950 393 400 964 
4 381 386 395 383 
4 391 378 380 390 
4 392 387 385 406 
4 366 383 399 397 
4 399 383 395 411 
4 392 402 390 389 
4 386 405 403 395 
4 391 390 416 396 
4 378 391 396 404 
4 378 404 398 376 
4 401 366 397 412 
4 400 393 398 410 
4 401 412 407 384 
4 408 394 384 407 
4 416 390 402 422 
4 385 394 408 406 
4 410 398 404 409 
4 409 404 396 418 
4 420 408 407 412 
4 406 413 402 392 
4 415 419 410 409 
4 395 403 414 411 
4 417 416 422 434 
4 396 416 417 418 
4 412 397 399 421 
4 428 408 420 423 
4 409 418 435 415 
4 414 403 426 429 
4 399 411 427 421 
4 411 414 424 427 
4 410 419 964 400 
4 412 421 431 420 
4 422 402 413 425 
4 964 419 436 968 
4 406 408 428 413 
4 403 405 153 426 
4 414 429 430 424 
4 436 419 415 435 
4 417 440 435 418 
4 425 413 428 439 
4 159 429 426 153 
4 422 425 433 434 
4 432 423 420 431 
4 423 450 439 428 
4 417 434 437 440 
4 429 159 177 430 
4 424 430 444 443 
4 427 441 431 421 
4 435 447 460 436 
4 425 439 442 433 
4 431 441 445 432 
4 453 437 434 433 
4 438 441 427 424 
4 450 423 432 455 
4 444 430 177 463 
4 445 441 438 446 
4 453 433 442 452 
4 435 440 437 449 
4 438 424 443 448 
4 439 450 465 442 
4 436 460 451 988 
4 463 177 457 186 
4 449 437 453 454 
4 435 449 462 447 
4 448 458 446 438 
4 461 443 444 463 
4 446 458 467 456 
4 445 446 455 432 
4 462 449 454 469 
4 458 448 470 479 
4 450 455 459 465 
4 452 442 465 471 
4 448 443 461 470 
4 464 454 453 452 
4 455 446 456 459 
4 471 466 464 452 
4 447 462 469 460 
4 456 467 478 468 
4 466 487 454 464 
4 460 469 474 473 
4 468 465 459 456 
4 461 481 479 470 
4 186 481 461 463 
4 484 466 471 483 
4 472 460 473 476 
4 487 466 484 477 
4 467 458 479 475 
4 454 487 474 469 
4 465 468 483 471 
4 478 467 475 491 
4 481 480 486 479 
4 483 468 478 485 
4 493 491 475 495 
4 482 476 492 1015 
4 479 486 495 475 
4 480 481 489 243 
4 492 476 473 488 
4 490 485 478 491 
4 484 501 505 477 
4 1027 492 488 500 
4 488 473 474 499 
4 499 474 487 477 
4 501 484 483 485 
4 485 490 508 501 
4 494 486 480 243 
4 247 242 1018 510 
4 494 243 496 251 
4 491 493 508 490 
4 494 497 495 486 
4 1027 500 507 1031 
4 493 495 497 498 
4 500 488 499 504 
4 499 477 505 504 
4 510 1018 502 516 
4 508 493 498 515 
4 494 251 509 497 
4 1033 503 1023 1026 
4 1023 503 502 1018 
4 516 498 497 509 
4 512 507 500 504 
4 513 503 1033 506 
4 506 1033 507 512 
4 504 505 511 512 
4 502 503 514 516 
4 514 503 513 515 
4 511 513 506 512 
4 501 508 511 505 
4 515 498 516 514 
4 508 515 513 511 
4 517 510 516 252 
4 510 517 253 247 
4 252 248 253 517 
4 519 518 520 523 
4 525 519 523 522 
4 519 525 528 12 
4 520 2 521 524 
4 523 520 524 522 
4 525 522 526 531 
4 522 527 530 526 
4 524 529 527 522 
4 521 537 529 524 
4 531 538 550 546 
4 546 528 525 531 
4 530 532 534 533 
4 526 530 533 531 
4 532 544 542 534 
4 532 530 527 535 
4 538 531 533 539 
4 533 534 545 539 
4 532 535 549 544 
4 537 536 850 529 
4 545 534 542 541 
4 535 527 529 850 
4 540 528 546 550 
4 545 541 552 557 
4 542 544 853 543 
4 554 539 545 557 
4 543 548 541 542 
4 547 552 541 548 
4 36 13 528 540 
4 538 539 554 551 
4 544 549 846 853 
4 557 552 562 565 
4 553 548 543 853 
4 36 540 556 581 
4 547 548 553 555 
4 553 858 868 555 
4 561 556 540 550 
4 538 551 561 550 
4 560 559 551 554 
4 561 551 559 564 
4 560 554 563 567 
4 555 566 558 547 
4 547 558 562 552 
4 556 561 564 572 
4 554 557 565 563 
4 40 36 581 568 
4 567 563 569 575 
4 571 559 560 570 
4 582 558 566 589 
4 569 563 565 573 
4 564 559 571 572 
4 570 560 567 575 
4 569 580 577 575 
4 589 566 583 600 
4 556 572 585 581 
4 570 575 588 590 
4 565 562 578 573 
4 571 570 590 576 
4 580 569 586 599 
4 569 573 578 586 
4 572 571 576 579 
4 47 568 574 592 
4 572 579 604 585 
4 623 577 580 599 
4 585 574 568 581 
4 582 578 562 558 
4 608 586 584 605 
4 584 586 578 587 
4 588 575 577 610 
4 579 576 591 601 
4 591 576 590 596 
4 587 578 582 598 
4 588 610 620 593 
4 584 587 594 605 
4 574 585 604 597 
4 599 586 608 623 
4 600 583 901 613 
4 593 596 590 588 
4 579 601 606 604 
4 598 602 594 587 
4 592 574 597 595 
4 596 593 607 609 
4 589 612 598 582 
4 612 589 600 613 
4 591 596 609 603 
4 618 597 604 606 
4 610 577 623 611 
4 629 612 613 919 
4 618 79 595 597 
4 606 601 591 603 
4 594 602 626 619 
4 605 594 619 615 
4 602 598 612 629 
4 624 79 618 630 
4 614 609 607 622 
4 608 605 615 616 
4 603 609 614 627 
4 627 617 606 603 
4 607 593 620 628 
4 620 610 611 628 
4 618 606 617 630 
4 626 602 629 640 
4 627 614 622 625 
4 611 623 608 616 
4 621 611 616 633 
4 617 627 638 635 
4 622 607 628 632 
4 635 624 630 617 
4 631 615 619 636 
4 635 638 645 651 
4 637 625 622 632 
4 638 627 625 646 
4 631 633 616 615 
4 611 621 652 628 
4 642 631 636 662 
4 641 632 628 652 
4 646 625 637 639 
4 647 624 635 651 
4 639 637 632 641 
4 631 642 643 633 
4 79 624 647 98 
4 621 633 643 652 
4 644 626 640 653 
4 653 640 634 648 
4 646 639 657 654 
4 619 626 644 636 
4 634 640 629 919 
4 646 654 645 638 
4 636 644 663 662 
4 655 649 647 651 
4 661 639 641 658 
4 645 654 700 670 
4 651 645 670 655 
4 667 643 642 682 
4 643 667 659 652 
4 644 653 675 673 
4 672 114 649 679 
4 671 641 652 659 
4 664 937 943 665 
4 656 668 648 650 
4 650 937 664 656 
4 658 641 671 677 
4 660 642 662 669 
4 663 644 673 674 
4 657 639 661 681 
4 656 664 685 687 
4 667 692 666 659 
4 642 660 702 682 
4 659 666 677 671 
4 700 654 676 710 
4 657 680 676 654 
4 668 675 653 648 
4 681 661 696 683 
4 667 682 704 692 
4 669 662 663 674 
4 670 679 649 655 
4 689 688 669 674 
4 696 661 690 694 
4 688 702 660 669 
4 678 689 674 673 
4 690 661 658 677 
4 687 675 668 656 
4 141 672 679 713 
4 666 716 684 677 
4 675 687 678 673 
4 701 679 670 700 
4 688 689 686 698 
4 683 680 657 681 
4 703 691 685 705 
4 686 689 678 691 
4 685 691 678 687 
4 716 666 692 704 
4 703 706 686 691 
4 685 664 693 699 
4 693 664 665 697 
4 690 677 684 712 
4 694 690 712 695 
4 676 680 730 710 
4 702 688 698 708 
4 705 685 699 723 
4 704 682 702 708 
4 684 716 718 715 
4 716 704 708 718 
4 707 701 700 710 
4 706 709 698 686 
4 693 720 723 699 
4 706 714 722 709 
4 724 706 703 705 
4 680 683 717 730 
4 711 694 695 743 
4 714 731 721 722 
4 697 975 720 693 
4 717 694 711 742 
4 715 718 709 722 
4 698 709 718 708 
4 717 683 696 694 
4 719 712 684 715 
4 715 722 721 719 
4 721 731 749 746 
4 739 701 707 727 
4 724 705 723 734 
4 975 736 726 720 
4 727 707 729 745 
4 729 707 710 730 
4 759 743 695 728 
4 719 721 735 728 
4 734 723 720 726 
4 712 719 728 695 
4 701 739 713 679 
4 724 733 732 706 
4 717 742 729 730 
4 735 721 746 744 
4 733 724 734 737 
4 741 738 726 736 
4 737 734 726 738 
4 725 706 732 761 
4 714 706 725 731 
4 737 740 751 733 
4 163 713 739 748 
4 737 738 760 740 
4 759 728 735 744 
4 732 733 751 761 
4 739 727 745 748 
4 975 983 741 736 
4 742 711 743 762 
4 760 738 741 755 
4 751 740 753 772 
4 729 742 747 745 
4 747 742 762 767 
4 754 756 746 749 
4 731 725 761 749 
4 750 163 748 757 
4 756 758 744 746 
4 749 761 752 754 
4 163 750 191 183 
4 764 748 745 747 
4 753 740 760 768 
4 757 748 764 775 
4 759 744 758 781 
4 756 754 774 763 
4 760 755 1003 768 
4 759 781 765 743 
4 763 774 776 769 
4 758 756 763 769 
4 762 743 765 789 
4 771 774 754 752 
4 747 767 770 764 
4 758 769 786 781 
4 782 752 761 751 
4 791 753 768 823 
4 772 790 782 751 
4 823 768 1003 766 
4 782 780 771 752 
4 773 203 787 777 
4 767 762 789 770 
4 776 774 771 784 
4 788 766 1003 1002 
4 786 769 776 800 
4 793 780 782 790 
4 777 778 794 773 
4 764 770 798 775 
4 778 777 779 776 
4 783 195 750 785 
4 750 757 775 785 
4 789 765 781 802 
4 775 798 797 785 
4 798 770 796 799 
4 771 780 795 784 
4 776 784 794 778 
4 806 802 781 786 
4 814 795 780 793 
4 772 753 791 790 
4 783 785 797 227 
4 796 770 789 802 
4 794 784 795 801 
4 806 786 800 811 
4 777 812 808 779 
4 787 803 812 777 
4 773 794 801 804 
4 779 808 800 776 
4 766 788 828 823 
4 203 773 804 792 
4 793 790 791 819 
4 795 814 815 801 
4 818 804 801 815 
4 810 797 798 799 
4 799 796 802 806 
4 821 811 800 808 
4 792 805 809 807 
4 814 793 819 824 
4 806 811 810 799 
4 822 809 805 816 
4 227 797 810 813 
4 811 821 813 810 
4 807 809 1018 242 
4 792 804 816 805 
4 809 817 1023 1018 
4 818 815 814 824 
4 808 812 826 821 
4 816 804 818 820 
4 826 244 813 821 
4 817 809 822 1028 
4 816 820 829 822 
4 820 818 827 829 
4 830 819 791 823 
4 827 818 824 825 
4 825 824 819 830 
4 830 823 828 833 
4 1039 1028 822 829 
4 827 831 1039 829 
4 827 825 832 831 
4 833 828 788 1043 
4 831 832 1046 1045 
4 832 825 834 1046 
4 834 825 830 833 
4 281 837 836 841 
4 842 836 837 849 
4 281 273 838 837 
4 836 844 839 841 
4 836 842 854 844 
4 536 843 839 840 
4 849 837 838 857 
4 536 835 845 843 
4 841 839 843 845 
4 841 845 263 281 
4 840 839 848 859 
4 848 839 844 855 
4 846 549 852 856 
4 850 536 840 852 
4 549 535 850 852 
4 856 852 840 859 
4 855 844 854 861 
4 851 847 854 842 
4 842 849 864 851 
4 553 853 863 858 
4 846 856 863 853 
4 848 855 860 859 
4 860 855 861 869 
4 856 859 860 862 
4 847 851 871 866 
4 864 849 873 867 
4 865 854 847 866 
4 861 854 865 869 
4 863 856 862 877 
4 566 555 868 583 
4 869 870 875 860 
4 871 851 864 867 
4 870 869 876 874 
4 876 869 865 866 
4 858 863 877 868 
4 868 877 878 880 
4 871 867 884 879 
4 875 870 874 885 
4 860 875 877 862 
4 872 866 871 879 
4 884 867 873 893 
4 868 880 901 583 
4 894 878 877 875 
4 883 874 876 882 
4 894 875 885 892 
4 882 876 866 872 
4 873 314 881 887 
4 878 894 902 888 
4 885 874 883 892 
4 878 888 886 880 
4 896 887 881 891 
4 879 884 893 890 
4 893 873 887 897 
4 887 896 908 897 
4 872 879 890 889 
4 890 893 897 899 
4 886 888 924 910 
4 880 886 910 901 
4 896 891 895 908 
4 882 872 889 898 
4 890 899 906 889 
4 895 891 340 350 
4 909 895 350 916 
4 902 894 892 904 
4 900 882 898 903 
4 924 888 902 918 
4 883 882 900 912 
4 917 897 908 921 
4 908 895 909 921 
4 899 907 911 906 
4 904 892 905 914 
4 905 892 883 912 
4 899 897 917 907 
4 901 910 919 613 
4 907 917 913 911 
4 922 903 915 927 
4 906 903 898 889 
4 914 905 912 922 
4 904 914 935 920 
4 918 902 904 920 
4 915 903 906 925 
4 911 913 934 933 
4 922 912 900 903 
4 930 934 913 929 
4 648 634 919 923 
4 919 910 924 923 
4 909 916 926 928 
4 931 923 924 918 
4 932 922 927 945 
4 928 929 921 909 
4 353 370 926 916 
4 917 921 929 913 
4 927 915 925 940 
4 925 906 911 933 
4 920 944 939 918 
4 940 925 933 941 
4 923 931 943 937 
4 926 950 942 928 
4 935 914 922 932 
4 648 923 937 650 
4 928 942 930 929 
4 931 918 939 943 
4 920 935 938 944 
4 941 954 957 940 
4 941 933 934 954 
4 943 939 936 948 
4 932 945 938 935 
4 938 945 947 946 
4 943 948 962 665 
4 944 938 946 949 
4 947 945 927 940 
4 948 936 956 962 
4 960 954 934 930 
4 944 949 936 939 
4 958 942 950 955 
4 930 942 958 960 
4 956 936 949 952 
4 951 946 947 953 
4 947 940 957 953 
4 946 951 952 949 
4 963 956 952 951 
4 951 953 966 963 
4 968 955 950 964 
4 966 953 957 959 
4 959 957 954 970 
4 665 962 961 697 
4 962 956 965 961 
4 960 958 976 969 
4 965 956 963 974 
4 979 965 974 986 
4 971 958 955 968 
4 954 960 969 970 
4 965 979 967 961 
4 976 958 971 977 
4 967 975 697 961 
4 975 967 979 983 
4 970 969 976 973 
4 971 968 436 972 
4 980 963 966 959 
4 959 970 973 994 
4 978 974 963 980 
4 977 971 972 985 
4 977 981 973 976 
4 978 980 982 992 
4 977 985 990 981 
4 980 959 994 982 
4 974 978 1000 986 
4 984 994 973 981 
4 981 990 993 984 
4 987 755 741 983 
4 988 985 972 436 
4 978 992 1005 1000 
4 990 985 988 995 
4 1002 987 989 1012 
4 989 987 983 979 
4 992 982 994 996 
4 979 986 991 989 
4 1012 989 991 1007 
4 995 988 451 998 
4 1000 1007 991 986 
4 993 996 994 984 
4 993 990 995 1001 
4 992 996 999 1005 
4 995 998 482 1001 
4 993 997 1004 996 
4 997 993 1001 1006 
4 451 460 472 998 
4 1009 1005 999 1008 
4 755 987 1002 1003 
4 996 1004 1008 999 
4 1010 1004 997 1006 
4 1012 1007 1014 1016 
4 1001 482 1013 1006 
4 1005 1014 1007 1000 
4 1002 1012 1019 788 
4 1004 1010 1011 1008 
4 1010 1006 1013 1029 
4 1008 1011 1017 1009 
4 472 476 482 998 
4 1005 1009 1016 1014 
4 1016 1009 1017 1036 
4 482 1015 1021 1013 
4 1019 1012 1016 1038 
4 1036 1017 1020 1037 
4 1011 1010 1029 1025 
4 1025 1020 1017 1011 
4 492 1027 1021 1015 
4 1013 1021 1022 1029 
4 817 1024 1026 1023 
4 1022 1021 1027 1031 
4 1024 817 1028 1035 
4 1016 1036 1042 1038 
4 1040 1020 1025 1032 
4 1032 1025 1029 1022 
4 1031 1026 1034 1030 
4 1022 1031 1030 1032 
4 1033 1026 1031 507 
4 1020 1040 1044 1037 
4 1026 1024 1035 1034 
4 1034 1040 1032 1030 
4 1034 1035 1041 1040 
4 1035 1028 1039 1041 
4 1019 1038 1042 1047 
4 1036 1037 1044 1048 
4 1019 1047 1043 788 
4 1045 1041 1039 831 
4 1045 1044 1040 1041 
4 1042 1036 1048 1049 
4 1045 1046 1048 1044 
4 1042 1049 1043 1047 
4 833 1043 1049 834 
4 1049 1048 1046 834 
